<svg xmlns="http://www.w3.org/2000/svg" width="53" height="52" viewBox="0 0 53 52" fill="none">
  <path d="M2.67188 43.3346V15.168H7.00521V39.0013H43.8385V43.3346H2.67188ZM11.3385 34.668V8.66797H50.3385V34.668H11.3385ZM20.0052 30.3346C20.0052 29.143 19.5813 28.1232 18.7334 27.2753C17.8855 26.4274 16.865 26.0027 15.6719 26.0013V30.3346H20.0052ZM41.6719 30.3346H46.0052V26.0013C44.8135 26.0013 43.7938 26.426 42.9459 27.2753C42.098 28.1246 41.6733 29.1444 41.6719 30.3346ZM30.8385 28.168C32.6441 28.168 34.1788 27.536 35.4427 26.2721C36.7066 25.0082 37.3385 23.4735 37.3385 21.668C37.3385 19.8624 36.7066 18.3277 35.4427 17.0638C34.1788 15.7999 32.6441 15.168 30.8385 15.168C29.033 15.168 27.4983 15.7999 26.2344 17.0638C24.9705 18.3277 24.3385 19.8624 24.3385 21.668C24.3385 23.4735 24.9705 25.0082 26.2344 26.2721C27.4983 27.536 29.033 28.168 30.8385 28.168ZM15.6719 17.3346C16.8635 17.3346 17.884 16.9107 18.7334 16.0628C19.5827 15.2149 20.0067 14.1944 20.0052 13.0013H15.6719V17.3346ZM46.0052 17.3346V13.0013H41.6719C41.6719 14.193 42.0965 15.2135 42.9459 16.0628C43.7952 16.9121 44.815 17.3361 46.0052 17.3346Z" fill="#992E9D"/>
</svg>