<svg xmlns="http://www.w3.org/2000/svg" width="34" height="48" viewBox="0 0 34 48" fill="none">
  <path d="M33.8626 16.6875C33.8637 13.8157 33.1233 10.9922 31.7132 8.49045C30.3031 5.98869 28.271 3.89333 25.8136 2.40723C23.3562 0.921116 20.5568 0.0945873 17.6863 0.00764734C14.8158 -0.0792926 11.9715 0.576301 9.4287 1.91097C6.88589 3.24563 4.7307 5.21416 3.17177 7.626C1.61283 10.0378 0.702954 12.8113 0.53021 15.6779C0.357466 18.5445 0.927706 21.4072 2.18573 23.9887C3.44376 26.5703 5.34696 28.7834 7.7111 30.4138L0.500003 42.901L5.87615 43.1226L8.75487 47.667L17.0145 33.3592L17.1813 33.3688C17.2647 33.3735 17.2909 33.3616 17.3481 33.3592L25.6078 47.667L28.5437 43.2203L33.8626 42.901L26.6515 30.4138C28.8764 28.882 30.6953 26.8321 31.9515 24.4408C33.2078 22.0495 33.8637 19.3886 33.8626 16.6875ZM5.26609 16.6875C5.26609 14.3309 5.96491 12.0272 7.27417 10.0677C8.58343 8.10827 10.4443 6.58106 12.6216 5.67923C14.7988 4.77739 17.1945 4.54143 19.5059 5.00118C21.8172 5.46094 23.9403 6.59575 25.6067 8.26212C27.273 9.9285 28.4078 12.0516 28.8676 14.3629C29.3273 16.6742 29.0914 19.07 28.1896 21.2472C27.2877 23.4244 25.7605 25.2853 23.8011 26.5946C21.8416 27.9039 19.5379 28.6027 17.1813 28.6027C14.0212 28.6027 10.9905 27.3473 8.75598 25.1128C6.52144 22.8783 5.26609 19.8476 5.26609 16.6875Z" fill="#992E9D"/>
  <path d="M17.1804 23.8354C21.1287 23.8354 24.3295 20.6346 24.3295 16.6862C24.3295 12.7379 21.1287 9.53711 17.1804 9.53711C13.232 9.53711 10.0312 12.7379 10.0312 16.6862C10.0312 20.6346 13.232 23.8354 17.1804 23.8354Z" fill="#992E9D"/>
</svg>