<svg xmlns="http://www.w3.org/2000/svg" width="53" height="52" viewBox="0 0 53 52" fill="none">
  <path d="M13.4896 8.66536H9.15625V4.33203H43.8229V8.66536H39.4896V12.9987C39.4896 16.4979 37.7216 19.3145 35.4942 21.6155C33.9711 23.1885 32.1186 24.638 30.2401 25.9987C32.1186 27.3594 33.9711 28.8089 35.4942 30.3819C37.7216 32.6829 39.4896 35.4995 39.4896 38.9987V43.332H43.8229V47.6654H9.15625V43.332H13.4896V38.9987C13.4896 35.4995 15.2576 32.6829 17.4849 30.3819C19.0081 28.8089 20.8606 27.3594 22.7391 25.9987C20.8606 24.638 19.0081 23.1885 17.4849 21.6155C15.2576 19.3145 13.4896 16.4979 13.4896 12.9987V8.66536ZM17.8229 8.66536V12.9987C17.8229 14.4829 18.3862 15.8912 19.4934 17.332H33.4857C34.5907 15.8912 35.1562 14.4829 35.1562 12.9987V8.66536H17.8229ZM26.4896 28.6464C24.2254 30.2454 22.1736 31.7685 20.5984 33.3957C20.2069 33.7981 19.838 34.222 19.4934 34.6654H33.4857C33.1412 34.222 32.7723 33.7981 32.3807 33.3957C30.8056 31.7685 28.7537 30.2454 26.4896 28.6464Z" fill="#992E9D"/>
</svg>