<svg xmlns="http://www.w3.org/2000/svg" width="53" height="52" viewBox="0 0 53 52" fill="none">
  <path d="M46.5139 11.4584L27.0139 4.9584C26.6803 4.8472 26.3197 4.8472 25.9861 4.9584L6.48609 11.4584C6.16253 11.5663 5.8811 11.7732 5.68169 12.0499C5.48227 12.3266 5.37497 12.659 5.375 13.0001V29.2501C5.375 29.6811 5.5462 30.0944 5.85095 30.3992C6.1557 30.7039 6.56902 30.8751 7 30.8751C7.43098 30.8751 7.8443 30.7039 8.14905 30.3992C8.45379 30.0944 8.625 29.6811 8.625 29.2501V15.2548L15.448 17.5278C13.6352 20.4564 13.0587 23.9848 13.8452 27.3381C14.6316 30.6914 16.7167 33.5956 19.6425 35.4129C15.9862 36.847 12.8256 39.4409 10.5141 42.9875C10.3938 43.1661 10.3103 43.3669 10.2684 43.5782C10.2265 43.7894 10.2269 44.0069 10.2698 44.2179C10.3126 44.4289 10.397 44.6294 10.518 44.8075C10.639 44.9857 10.7942 45.138 10.9746 45.2557C11.1549 45.3733 11.3569 45.4539 11.5687 45.4928C11.7805 45.5318 11.9979 45.5282 12.2084 45.4823C12.4188 45.4365 12.618 45.3492 12.7944 45.2257C12.9708 45.1022 13.1209 44.9448 13.2359 44.7628C16.297 40.0665 21.1314 37.3751 26.5 37.3751C31.8686 37.3751 36.703 40.0665 39.7641 44.7628C40.0024 45.117 40.3706 45.3632 40.789 45.4482C41.2074 45.5331 41.6424 45.45 42 45.2167C42.3577 44.9835 42.6091 44.6189 42.7 44.2017C42.7909 43.7846 42.714 43.3484 42.4859 42.9875C40.1744 39.4409 37.0016 36.847 33.3575 35.4129C36.2805 33.5957 38.3636 30.6934 39.1499 27.3425C39.9362 23.9917 39.3616 20.4657 37.552 17.5379L46.5139 14.552C46.8375 14.4442 47.119 14.2373 47.3185 13.9606C47.518 13.6839 47.6254 13.3514 47.6254 13.0103C47.6254 12.6692 47.518 12.3367 47.3185 12.06C47.119 11.7833 46.8375 11.5764 46.5139 11.4686V11.4584ZM36.25 24.3751C36.2504 25.9165 35.8854 27.4361 35.1848 28.8091C34.4843 30.1822 33.4682 31.3695 32.2199 32.2738C30.9715 33.1781 29.5266 33.7735 28.0036 34.0112C26.4807 34.249 24.923 34.1222 23.4585 33.6414C21.994 33.1605 20.6644 32.3393 19.5787 31.2451C18.493 30.1508 17.6823 28.8148 17.2129 27.3466C16.7436 25.8783 16.6291 24.3197 16.8787 22.7987C17.1284 21.2776 17.7352 19.8374 18.6492 18.5962L25.9861 21.0337C26.3197 21.1449 26.6803 21.1449 27.0139 21.0337L34.3508 18.5962C35.5852 20.27 36.2508 22.2953 36.25 24.3751Z" fill="#992E9D"/>
</svg>