<svg xmlns="http://www.w3.org/2000/svg" width="60" height="60" viewBox="0 0 60 60" fill="none">
  <path d="M23.125 32.5C23.125 35.2625 20.8875 37.5 18.125 37.5C15.3625 37.5 13.125 35.2625 13.125 32.5C13.125 29.7375 15.3625 27.5 18.125 27.5C20.8875 27.5 23.125 29.7375 23.125 32.5Z" fill="url(#paint0_linear_2735_1635)"/>
  <path fill-rule="evenodd" clip-rule="evenodd" d="M18.125 35C18.788 35 19.4239 34.7366 19.8928 34.2678C20.3616 33.7989 20.625 33.163 20.625 32.5C20.625 31.837 20.3616 31.2011 19.8928 30.7322C19.4239 30.2634 18.788 30 18.125 30C17.462 30 16.8261 30.2634 16.3572 30.7322C15.8884 31.2011 15.625 31.837 15.625 32.5C15.625 33.163 15.8884 33.7989 16.3572 34.2678C16.8261 34.7366 17.462 35 18.125 35ZM18.125 37.5C20.8875 37.5 23.125 35.2625 23.125 32.5C23.125 29.7375 20.8875 27.5 18.125 27.5C15.3625 27.5 13.125 29.7375 13.125 32.5C13.125 35.2625 15.3625 37.5 18.125 37.5Z" fill="url(#paint1_linear_2735_1635)"/>
  <path d="M7.5 45.6825C7.5 41.9025 14.5788 40 18.125 40C21.6712 40 28.75 41.9037 28.75 45.6812V52.5H7.5V45.6825Z" fill="url(#paint2_linear_2735_1635)"/>
  <path fill-rule="evenodd" clip-rule="evenodd" d="M10.4175 44.9788C10.0225 45.3688 10 45.5925 10 45.6825V50H26.25V45.6812C26.25 45.5937 26.2275 45.3688 25.8325 44.9788C25.415 44.5675 24.7262 44.1263 23.7825 43.7225C21.8825 42.9088 19.5625 42.5 18.125 42.5C16.6875 42.5 14.3663 42.9088 12.4675 43.7225C11.5237 44.1263 10.835 44.5675 10.4175 44.9788ZM18.125 40C14.5788 40 7.5 41.9037 7.5 45.6812V52.5H28.75V45.6812C28.75 41.905 21.6712 40 18.125 40Z" fill="url(#paint3_linear_2735_1635)"/>
  <path d="M46.875 32.5C46.875 35.2625 44.6375 37.5 41.875 37.5C39.1125 37.5 36.875 35.2625 36.875 32.5C36.875 29.7375 39.1125 27.5 41.875 27.5C44.6375 27.5 46.875 29.7375 46.875 32.5Z" fill="url(#paint4_linear_2735_1635)"/>
  <path fill-rule="evenodd" clip-rule="evenodd" d="M41.875 35C42.538 35 43.1739 34.7366 43.6428 34.2678C44.1116 33.7989 44.375 33.163 44.375 32.5C44.375 31.837 44.1116 31.2011 43.6428 30.7322C43.1739 30.2634 42.538 30 41.875 30C41.212 30 40.5761 30.2634 40.1072 30.7322C39.6384 31.2011 39.375 31.837 39.375 32.5C39.375 33.163 39.6384 33.7989 40.1072 34.2678C40.5761 34.7366 41.212 35 41.875 35ZM41.875 37.5C44.6375 37.5 46.875 35.2625 46.875 32.5C46.875 29.7375 44.6375 27.5 41.875 27.5C39.1125 27.5 36.875 29.7375 36.875 32.5C36.875 35.2625 39.1125 37.5 41.875 37.5Z" fill="url(#paint5_linear_2735_1635)"/>
  <path d="M35 30C35 32.7625 32.7625 35 30 35C27.2375 35 25 32.7625 25 30C25 27.2375 27.2375 25 30 25C32.7625 25 35 27.2375 35 30Z" fill="url(#paint6_linear_2735_1635)"/>
  <path fill-rule="evenodd" clip-rule="evenodd" d="M30 32.5C30.663 32.5 31.2989 32.2366 31.7678 31.7678C32.2366 31.2989 32.5 30.663 32.5 30C32.5 29.337 32.2366 28.7011 31.7678 28.2322C31.2989 27.7634 30.663 27.5 30 27.5C29.337 27.5 28.7011 27.7634 28.2322 28.2322C27.7634 28.7011 27.5 29.337 27.5 30C27.5 30.663 27.7634 31.2989 28.2322 31.7678C28.7011 32.2366 29.337 32.5 30 32.5ZM30 35C32.7625 35 35 32.7625 35 30C35 27.2375 32.7625 25 30 25C27.2375 25 25 27.2375 25 30C25 32.7625 27.2375 35 30 35Z" fill="url(#paint7_linear_2735_1635)"/>
  <path d="M28.7522 16.0413C28.7522 14.439 28.1158 12.9024 26.9828 11.7694C25.8498 10.6365 24.3132 10 22.711 10H18.7497C17.1107 9.99736 15.5362 10.639 14.3658 11.7865C13.1954 12.934 12.5229 14.4955 12.4932 16.1344C12.4635 17.7732 13.0791 19.358 14.2071 20.5472C15.3352 21.7363 16.8854 22.4345 18.5235 22.4913L18.7522 22.5V25C18.7522 25 28.7522 23.5413 28.7522 16.0413ZM32.5022 14.045C32.5022 12.3092 33.1918 10.6444 34.4192 9.41699C35.6467 8.18956 37.3114 7.5 39.0472 7.5H46.2522C47.9098 7.5 49.4996 8.15848 50.6717 9.33058C51.8438 10.5027 52.5022 12.0924 52.5022 13.75C52.5022 15.4076 51.8438 16.9973 50.6717 18.1694C49.4996 19.3415 47.9098 20 46.2522 20H43.7522V23.75C43.7522 23.75 32.5022 22.17 32.5022 14.045ZM31.2522 45.6825C31.2522 41.9025 38.331 40 41.8772 40C45.4235 40 52.5022 41.9037 52.5022 45.6812V52.5H31.2522V45.6825Z" fill="url(#paint8_linear_2735_1635)"/>
  <path fill-rule="evenodd" clip-rule="evenodd" d="M34.1659 44.9788C33.7709 45.3688 33.7484 45.5925 33.7484 45.6825V50H49.9984V45.6812C49.9984 45.5937 49.9759 45.3688 49.5809 44.9788C49.1634 44.5675 48.4747 44.1263 47.5309 43.7225C45.6309 42.9088 43.3109 42.5 41.8734 42.5C40.4359 42.5 38.1147 42.9088 36.2159 43.7225C35.2722 44.1263 34.5834 44.5675 34.1659 44.9788ZM41.8734 40C38.3272 40 31.2484 41.9037 31.2484 45.6812V52.5H52.4984V45.6812C52.4984 41.905 45.4197 40 41.8734 40ZM29.9984 43.1812C29.9984 41.085 27.6897 39.565 24.9922 38.6275C26.5575 37.8874 28.267 37.5024 29.9984 37.5C31.7299 37.5024 33.4394 37.8874 35.0047 38.6275C32.3072 39.565 29.9984 41.085 29.9984 43.1812Z" fill="url(#paint9_linear_2735_1635)"/>
  <path fill-rule="evenodd" clip-rule="evenodd" d="M29.9984 43.1812C29.9984 42.065 30.6534 41.1112 31.6734 40.3225L31.8497 40.1912C32.7209 39.5587 33.8247 39.0375 35.0047 38.6287C33.8339 38.0768 32.5807 37.72 31.2947 37.5725C30.4332 37.4758 29.5636 37.4758 28.7022 37.5725C27.4163 37.7196 26.1631 38.076 24.9922 38.6275C26.1709 39.0375 27.2759 39.5587 28.1459 40.19C28.2059 40.2333 28.2647 40.2775 28.3222 40.3225C29.3434 41.11 29.9984 42.065 29.9984 43.1812Z" fill="url(#paint10_linear_2735_1635)"/>
  <defs>
    <linearGradient id="paint0_linear_2735_1635" x1="18.125" y1="27.5" x2="18.125" y2="37.5" gradientUnits="userSpaceOnUse">
      <stop stop-color="#902190"/>
      <stop offset="1" stop-color="#DD71DD"/>
    </linearGradient>
    <linearGradient id="paint1_linear_2735_1635" x1="18.125" y1="27.5" x2="18.125" y2="37.5" gradientUnits="userSpaceOnUse">
      <stop stop-color="#902190"/>
      <stop offset="1" stop-color="#DD71DD"/>
    </linearGradient>
    <linearGradient id="paint2_linear_2735_1635" x1="18.125" y1="40" x2="18.125" y2="52.5" gradientUnits="userSpaceOnUse">
      <stop stop-color="#902190"/>
      <stop offset="1" stop-color="#DD71DD"/>
    </linearGradient>
    <linearGradient id="paint3_linear_2735_1635" x1="18.125" y1="40" x2="18.125" y2="52.5" gradientUnits="userSpaceOnUse">
      <stop stop-color="#902190"/>
      <stop offset="1" stop-color="#DD71DD"/>
    </linearGradient>
    <linearGradient id="paint4_linear_2735_1635" x1="41.875" y1="27.5" x2="41.875" y2="37.5" gradientUnits="userSpaceOnUse">
      <stop stop-color="#902190"/>
      <stop offset="1" stop-color="#DD71DD"/>
    </linearGradient>
    <linearGradient id="paint5_linear_2735_1635" x1="41.875" y1="27.5" x2="41.875" y2="37.5" gradientUnits="userSpaceOnUse">
      <stop stop-color="#902190"/>
      <stop offset="1" stop-color="#DD71DD"/>
    </linearGradient>
    <linearGradient id="paint6_linear_2735_1635" x1="30" y1="25" x2="30" y2="35" gradientUnits="userSpaceOnUse">
      <stop stop-color="#902190"/>
      <stop offset="1" stop-color="#DD71DD"/>
    </linearGradient>
    <linearGradient id="paint7_linear_2735_1635" x1="30" y1="25" x2="30" y2="35" gradientUnits="userSpaceOnUse">
      <stop stop-color="#902190"/>
      <stop offset="1" stop-color="#DD71DD"/>
    </linearGradient>
    <linearGradient id="paint8_linear_2735_1635" x1="32.4972" y1="7.5" x2="32.4972" y2="52.5" gradientUnits="userSpaceOnUse">
      <stop stop-color="#902190"/>
      <stop offset="1" stop-color="#DD71DD"/>
    </linearGradient>
    <linearGradient id="paint9_linear_2735_1635" x1="38.7453" y1="37.5" x2="38.7453" y2="52.5" gradientUnits="userSpaceOnUse">
      <stop stop-color="#902190"/>
      <stop offset="1" stop-color="#DD71DD"/>
    </linearGradient>
    <linearGradient id="paint10_linear_2735_1635" x1="29.9984" y1="37.5" x2="29.9984" y2="43.75" gradientUnits="userSpaceOnUse">
      <stop stop-color="#902190"/>
      <stop offset="1" stop-color="#DD71DD"/>
    </linearGradient>
  </defs>
</svg>