<svg xmlns="http://www.w3.org/2000/svg" width="60" height="60" viewBox="0 0 60 60" fill="none">
  <path fill-rule="evenodd" clip-rule="evenodd" d="M11.2531 10C11.2531 9.33696 11.5165 8.70107 11.9854 8.23223C12.4542 7.76339 13.0901 7.5 13.7531 7.5H46.2531C46.9162 7.5 47.5521 7.76339 48.0209 8.23223C48.4897 8.70107 48.7531 9.33696 48.7531 10V35H11.2531V10ZM13.7531 2.5C11.764 2.5 9.85635 3.29018 8.44982 4.6967C7.0433 6.10322 6.25312 8.01088 6.25312 10V37.5L0.653124 52.4325C0.440244 52.9998 0.367999 53.6102 0.442574 54.2115C0.51715 54.8129 0.736324 55.3871 1.08134 55.8852C1.42635 56.3834 1.88692 56.7904 2.42363 57.0717C2.96034 57.3529 3.5572 57.4998 4.16312 57.5H55.8406C56.4468 57.5003 57.0439 57.3536 57.581 57.0725C58.118 56.7915 58.5789 56.3844 58.9242 55.8863C59.2695 55.3881 59.4889 54.8137 59.5636 54.2122C59.6383 53.6106 59.5661 53 59.3531 52.4325L53.7531 37.5V10C53.7531 8.01088 52.9629 6.10322 51.5564 4.6967C50.1499 3.29018 48.2422 2.5 46.2531 2.5H13.7531ZM24.3781 48.75C24.3781 48.2527 24.5757 47.7758 24.9273 47.4242C25.2789 47.0725 25.7558 46.875 26.2531 46.875H33.7531C34.2504 46.875 34.7273 47.0725 35.0789 47.4242C35.4306 47.7758 35.6281 48.2527 35.6281 48.75C35.6281 49.2473 35.4306 49.7242 35.0789 50.0758C34.7273 50.4275 34.2504 50.625 33.7531 50.625H26.2531C25.7558 50.625 25.2789 50.4275 24.9273 50.0758C24.5757 49.7242 24.3781 49.2473 24.3781 48.75ZM36.2531 17.5C36.2531 19.1576 35.5946 20.7473 34.4225 21.9194C33.2504 23.0915 31.6607 23.75 30.0031 23.75C28.3455 23.75 26.7558 23.0915 25.5837 21.9194C24.4116 20.7473 23.7531 19.1576 23.7531 17.5C23.7531 15.8424 24.4116 14.2527 25.5837 13.0806C26.7558 11.9085 28.3455 11.25 30.0031 11.25C31.6607 11.25 33.2504 11.9085 34.4225 13.0806C35.5946 14.2527 36.2531 15.8424 36.2531 17.5ZM20.7656 29.43C23.4008 27.3637 26.6544 26.2437 30.0031 26.25C33.4881 26.25 36.6931 27.4375 39.2406 29.43C40.0881 30.0925 39.5581 31.33 38.4831 31.33H21.5231C20.4481 31.33 19.9181 30.0925 20.7656 29.43Z" fill="url(#paint0_linear_2735_1623)"/>
  <defs>
    <linearGradient id="paint0_linear_2735_1623" x1="30.0031" y1="2.5" x2="30.0031" y2="57.5" gradientUnits="userSpaceOnUse">
      <stop stop-color="#902190"/>
      <stop offset="1" stop-color="#DD71DD"/>
    </linearGradient>
  </defs>
</svg>