<svg xmlns="http://www.w3.org/2000/svg" width="60" height="60" viewBox="0 0 60 60" fill="none">
  <path d="M37.5 52.5H32.5C31.1739 52.5 29.9021 51.9732 28.9645 51.0355C28.0268 50.0979 27.5 48.8261 27.5 47.5C27.5 46.1739 28.0268 44.9021 28.9645 43.9645C29.9021 43.0268 31.1739 42.5 32.5 42.5H37.5V37.5H32.5C29.8478 37.5 27.3043 38.5536 25.4289 40.4289C23.5536 42.3043 22.5 44.8478 22.5 47.5C22.5 50.1522 23.5536 52.6957 25.4289 54.5711C27.3043 56.4464 29.8478 57.5 32.5 57.5H37.5V52.5ZM57.5 47.5C57.5 50.1522 56.4464 52.6957 54.5711 54.5711C52.6957 56.4464 50.1522 57.5 47.5 57.5H42.5V52.5H47.5C48.8261 52.5 50.0979 51.9732 51.0355 51.0355C51.9732 50.0979 52.5 48.8261 52.5 47.5C52.5 46.1739 51.9732 44.9021 51.0355 43.9645C50.0979 43.0268 48.8261 42.5 47.5 42.5H42.5V37.5H47.5C50.1522 37.5 52.6957 38.5536 54.5711 40.4289C56.4464 42.3043 57.5 44.8478 57.5 47.5Z" fill="url(#paint0_linear_2735_1610)"/>
  <path d="M35 45.0005H45V50.0005H35V45.0005ZM17.5 47.5005C17.505 46.6623 17.5803 45.8261 17.725 45.0005H7.5V41.5005C7.5 36.5005 17.5 33.7505 22.5 33.7505C23.6315 33.7657 24.76 33.8702 25.875 34.063C27.9329 33.0371 30.2006 32.5023 32.5 32.5005H45V10.0005C44.996 8.67564 44.468 7.40617 43.5312 6.46934C42.5943 5.53252 41.3249 5.00446 40 5.00051H29.55C29.0381 3.5391 28.0847 2.2729 26.8217 1.37705C25.5587 0.481207 24.0485 0 22.5 0C20.9515 0 19.4413 0.481207 18.1783 1.37705C16.9153 2.2729 15.9619 3.5391 15.45 5.00051H5C3.67513 5.00446 2.40566 5.53252 1.46884 6.46934C0.532012 7.40617 0.00395682 8.67564 0 10.0005L0 45.0005C0.00395682 46.3254 0.532012 47.5948 1.46884 48.5317C2.40566 49.4685 3.67513 49.9965 5 50.0005H17.725C17.5803 49.1749 17.505 48.3387 17.5 47.5005ZM22.5 5.00051C22.9945 5.00051 23.4778 5.14713 23.8889 5.42183C24.3 5.69654 24.6205 6.08698 24.8097 6.5438C24.9989 7.00061 25.0484 7.50328 24.952 7.98823C24.8555 8.47318 24.6174 8.91864 24.2678 9.26827C23.9181 9.6179 23.4727 9.85601 22.9877 9.95247C22.5028 10.0489 22.0001 9.99942 21.5433 9.81021C21.0865 9.62099 20.696 9.30055 20.4213 8.88943C20.1466 8.47831 20 7.99496 20 7.50051C20.002 6.83807 20.266 6.20334 20.7344 5.73492C21.2028 5.26651 21.8376 5.00248 22.5 5.00051ZM22.5 15.0005C23.9834 15.0005 25.4334 15.4404 26.6668 16.2645C27.9001 17.0886 28.8614 18.2599 29.4291 19.6304C29.9968 21.0008 30.1453 22.5088 29.8559 23.9637C29.5665 25.4185 28.8522 26.7549 27.8033 27.8038C26.7544 28.8527 25.418 29.567 23.9632 29.8564C22.5083 30.1458 21.0003 29.9973 19.6299 29.4296C18.2594 28.8619 17.0881 27.9007 16.264 26.6673C15.4399 25.4339 15 23.9839 15 22.5005C14.9987 21.5152 15.1918 20.5394 15.5682 19.6288C15.9447 18.7183 16.4971 17.891 17.1938 17.1943C17.8905 16.4976 18.7178 15.9452 19.6283 15.5687C20.5389 15.1923 21.5147 14.9992 22.5 15.0005Z" fill="url(#paint1_linear_2735_1610)"/>
  <defs>
    <linearGradient id="paint0_linear_2735_1610" x1="40" y1="37.5" x2="40" y2="57.5" gradientUnits="userSpaceOnUse">
      <stop stop-color="#902190"/>
      <stop offset="1" stop-color="#DD71DD"/>
    </linearGradient>
    <linearGradient id="paint1_linear_2735_1610" x1="22.5" y1="0" x2="22.5" y2="50.0005" gradientUnits="userSpaceOnUse">
      <stop stop-color="#902190"/>
      <stop offset="1" stop-color="#DD71DD"/>
    </linearGradient>
  </defs>
</svg>