<svg xmlns="http://www.w3.org/2000/svg" width="71" height="71" viewBox="0 0 71 71" fill="none">
  <path d="M35.4427 26.7507L25.2344 16.5423L35.4427 6.33398L45.651 16.5423L35.4427 26.7507ZM3.35938 58.834V47.1673C3.35938 45.5145 3.93104 44.1291 5.07438 43.0111C6.21771 41.893 7.59049 41.334 9.19271 41.334H18.7448C19.717 41.334 20.6406 41.577 21.5156 42.0632C22.3906 42.5493 23.0955 43.2055 23.6302 44.0319C25.0399 45.9277 26.7783 47.4104 28.8452 48.4798C30.9122 49.5493 33.1113 50.084 35.4427 50.084C37.8247 50.084 40.0491 49.5493 42.116 48.4798C44.183 47.4104 45.896 45.9277 47.2552 44.0319C47.8872 43.2055 48.629 42.5493 49.4806 42.0632C50.3323 41.577 51.219 41.334 52.1406 41.334H61.6927C63.3455 41.334 64.7309 41.893 65.849 43.0111C66.967 44.1291 67.526 45.5145 67.526 47.1673V58.834H47.1094V52.1986C45.408 53.4138 43.5724 54.3375 41.6027 54.9694C39.633 55.6013 37.5797 55.9173 35.4427 55.9173C33.3524 55.9173 31.3108 55.5897 29.3177 54.9344C27.3247 54.2791 25.4774 53.3429 23.776 52.1257V58.834H3.35938ZM12.1094 38.4173C9.67882 38.4173 7.61285 37.5666 5.91146 35.8652C4.21007 34.1638 3.35938 32.0979 3.35938 29.6673C3.35938 27.1882 4.21007 25.1105 5.91146 23.4344C7.61285 21.7583 9.67882 20.9193 12.1094 20.9173C14.5885 20.9173 16.6672 21.7563 18.3452 23.4344C20.0233 25.1125 20.8613 27.1901 20.8594 29.6673C20.8594 32.0979 20.0213 34.1638 18.3452 35.8652C16.6691 37.5666 14.5905 38.4173 12.1094 38.4173ZM58.776 38.4173C56.3455 38.4173 54.2795 37.5666 52.5781 35.8652C50.8767 34.1638 50.026 32.0979 50.026 29.6673C50.026 27.1882 50.8767 25.1105 52.5781 23.4344C54.2795 21.7583 56.3455 20.9193 58.776 20.9173C61.2552 20.9173 63.3338 21.7563 65.0119 23.4344C66.6899 25.1125 67.528 27.1901 67.526 29.6673C67.526 32.0979 66.688 34.1638 65.0119 35.8652C63.3358 37.5666 61.2572 38.4173 58.776 38.4173Z" fill="#8B0A8B"/>
</svg>