<svg xmlns="http://www.w3.org/2000/svg" width="71" height="71" viewBox="0 0 71 71" fill="none">
  <path d="M31.8306 44.8107C32.7095 45.6895 33.8567 46.093 35.2723 46.0211C36.6917 45.9472 37.7398 45.4465 38.4165 44.519L49.6194 28.8886C50.018 28.313 49.984 27.7919 49.5173 27.3252C49.0506 26.8586 48.5285 26.8236 47.951 27.2202L32.2681 38.3736C31.3017 39.023 30.7583 40.0263 30.6377 41.3836C30.5172 42.7408 30.9148 43.8832 31.8306 44.8107ZM15.3281 55.9173C14.7895 55.9173 14.2937 55.7802 13.8406 55.5061C13.3856 55.23 13.0026 54.8547 12.6915 54.3802C11.5403 52.395 10.6712 50.2969 10.084 48.0861C9.49674 45.8752 9.20312 43.6245 9.20312 41.334C9.20312 37.7018 9.89243 34.2893 11.271 31.0965C12.6497 27.9037 14.5202 25.1261 16.8827 22.7636C19.2452 20.4011 22.0228 18.5305 25.2156 17.1519C28.4084 15.7733 31.8209 15.084 35.4531 15.084C39.064 15.084 42.4541 15.7626 45.6235 17.1198C48.793 18.4751 51.5658 20.3223 53.9419 22.6615C56.3199 25.0026 58.2021 27.7423 59.5885 30.8807C60.9769 34.0209 61.6769 37.3936 61.6885 40.9986C61.6983 43.4175 61.4124 45.7625 60.831 48.0336C60.2497 50.3066 59.3717 52.497 58.1973 54.6048C57.9251 55.0793 57.5556 55.4166 57.089 55.6169C56.6242 55.8172 56.1148 55.9173 55.5606 55.9173H15.3281Z" fill="#8B0A8B"/>
</svg>