<svg xmlns="http://www.w3.org/2000/svg" width="71" height="71" viewBox="0 0 71 71" fill="none">
  <path d="M30.0732 43.5885L30.047 43.5272C29.6526 43.4194 29.2616 43.2998 28.8745 43.1685L28.8453 43.1568C24.8161 41.7783 21.3188 39.1743 18.843 35.7095C16.3671 32.2447 15.0366 28.0924 15.0378 23.8339C15.0365 18.6075 17.0395 13.5797 20.6343 9.78594C24.229 5.99219 29.1418 3.72146 34.3606 3.44146C39.5795 3.16145 44.707 4.89348 48.687 8.28081C52.6671 11.6681 55.1966 16.4528 55.7545 21.6493C55.8828 22.851 54.8911 23.8339 53.6836 23.8339C52.4761 23.8339 51.5107 22.848 51.3503 21.6522C50.9624 18.8297 49.8298 16.1613 48.0691 13.9214C46.3084 11.6815 43.983 9.95088 41.3319 8.90733C38.6808 7.86378 35.7997 7.54498 32.9846 7.98369C30.1695 8.42241 27.5219 9.60281 25.3141 11.4036C23.1063 13.2044 21.4178 15.5606 20.4222 18.23C19.4265 20.8995 19.1597 23.7859 19.649 26.5926C20.1383 29.3994 21.3662 32.0252 23.2065 34.2002C25.0467 36.3753 27.4329 38.0211 30.1199 38.9685C30.6612 37.745 31.6065 36.7448 32.7976 36.1354C33.9886 35.5261 35.3529 35.3446 36.6618 35.6215C37.9707 35.8984 39.1446 36.6168 39.9868 37.6562C40.829 38.6957 41.2884 39.9931 41.2878 41.331C41.2892 42.6792 40.8234 43.9864 39.9698 45.03C39.1162 46.0736 37.9274 46.7894 36.6056 47.0554C35.2839 47.3215 33.9108 47.1215 32.7198 46.4894C31.5289 45.8573 30.5937 44.8322 30.0732 43.5885ZM27.0836 47.176C23.6447 45.9409 20.5213 43.9608 17.937 41.3776C16.3391 41.5635 14.8651 42.3299 13.795 43.5311C12.725 44.7323 12.1335 46.2848 12.1328 47.8935V50.5768C12.1328 52.2451 12.652 53.8726 13.6203 55.2318C18.1178 61.5435 25.4795 64.6672 35.4545 64.6672C45.4295 64.6672 52.7941 61.5405 57.3003 55.2318C58.2731 53.8712 58.7963 52.2406 58.7966 50.568V47.8905C58.7966 46.1511 58.106 44.4828 56.8765 43.2522C55.6471 42.0217 53.9794 41.3296 52.2399 41.328H45.6628C45.6633 43.5005 44.9706 45.6165 43.6856 47.3682C42.4007 49.1199 40.5903 50.416 38.518 51.068C36.4456 51.7199 34.2193 51.6938 32.1629 50.9933C30.1064 50.2928 28.3271 48.9574 27.0836 47.176ZM47.1211 23.8339C47.1212 22.1289 46.7475 20.4446 46.0263 18.8996C45.3052 17.3546 44.2543 15.9864 42.9474 14.8914C41.7343 13.8766 40.3275 13.119 38.8125 12.6648C37.2975 12.2106 35.706 12.0691 34.1346 12.249C32.5633 12.4289 31.045 12.9265 29.6719 13.7114C28.2988 14.4963 27.0996 15.5522 26.1472 16.815C25.1949 18.0777 24.5092 19.5209 24.132 21.0569C23.7547 22.5928 23.6936 24.1894 23.9525 25.7497C24.2114 27.31 24.7849 28.8013 25.638 30.1331C26.4911 31.4649 27.6062 32.6093 28.9153 33.4968C30.7502 31.9652 33.0644 31.1261 35.4545 31.1255C37.9424 31.1255 40.2232 32.0151 41.9966 33.4968C43.5754 32.4276 44.868 30.9876 45.7614 29.3031C46.6548 27.6185 47.1216 25.7407 47.1211 23.8339Z" fill="#8B0A8B"/>
</svg>