<svg xmlns="http://www.w3.org/2000/svg" width="71" height="71" viewBox="0 0 71 71" fill="none">
  <path fill-rule="evenodd" clip-rule="evenodd" d="M34.368 12.9405C34.2408 12.716 34.0563 12.5294 33.8334 12.3995C33.6105 12.2696 33.3572 12.2012 33.0992 12.2012C32.8413 12.2012 32.5879 12.2696 32.365 12.3995C32.1421 12.5294 31.9577 12.716 31.8305 12.9405L6.99506 56.6555C6.86911 56.8771 6.80348 57.128 6.8047 57.3829C6.80593 57.6379 6.87398 57.888 7.00206 58.1085C7.13014 58.3289 7.31377 58.512 7.53465 58.6393C7.75553 58.7666 8.00593 58.8338 8.26089 58.8342H57.9376C58.1928 58.8344 58.4435 58.7675 58.6648 58.6404C58.8861 58.5133 59.0701 58.3303 59.1986 58.1098C59.327 57.8892 59.3953 57.6388 59.3967 57.3836C59.398 57.1285 59.3324 56.8774 59.2063 56.6555L52.5855 45.0034C50.1919 45.2746 47.7714 44.8369 45.6245 43.7445C43.4776 42.6522 41.6988 40.9533 40.5089 38.8588C39.3191 36.7643 38.7706 34.3665 38.9317 31.963C39.0927 29.5595 39.9561 27.2563 41.4146 25.3392L34.368 12.9405ZM30.8826 33.3134C30.8826 32.7332 31.113 32.1768 31.5233 31.7666C31.9335 31.3564 32.4899 31.1259 33.0701 31.1259C33.6502 31.1259 34.2066 31.3564 34.6169 31.7666C35.0271 32.1768 35.2576 32.7332 35.2576 33.3134V40.6051C35.2576 41.1852 35.0271 41.7416 34.6169 42.1519C34.2066 42.5621 33.6502 42.7926 33.0701 42.7926C32.4899 42.7926 31.9335 42.5621 31.5233 42.1519C31.113 41.7416 30.8826 41.1852 30.8826 40.6051V33.3134ZM35.2576 45.7092V50.0842H30.8826V45.7092H35.2576Z" fill="#8B0A8B"/>
  <path fill-rule="evenodd" clip-rule="evenodd" d="M43.0278 28.1804C42.2335 29.5862 41.8174 31.1741 41.8203 32.7888C41.8163 34.4148 42.2356 36.0139 43.0369 37.4288C43.8382 38.8437 44.994 40.0257 46.3906 40.8585C47.7873 41.6913 49.3766 42.1462 51.0023 42.1785C52.628 42.2109 54.2342 41.8195 55.6628 41.0429L61.3649 46.7421L65.1566 42.9504L59.4516 37.2483C60.6541 35.0704 60.9421 32.504 60.2524 30.1137C59.5626 27.7234 57.9516 25.705 55.7737 24.5025C53.5958 23.3 51.0293 23.012 48.639 23.7017C46.2487 24.3915 44.2303 26.0025 43.0278 28.1804ZM55.2195 32.7888C55.2195 33.8547 54.7961 34.877 54.0423 35.6307C53.2886 36.3845 52.2663 36.8079 51.2003 36.8079C50.1344 36.8079 49.1121 36.3845 48.3584 35.6307C47.6046 34.877 47.1812 33.8547 47.1812 32.7888C47.1812 31.7228 47.6046 30.7005 48.3584 29.9468C49.1121 29.193 50.1344 28.7696 51.2003 28.7696C52.2663 28.7696 53.2886 29.193 54.0423 29.9468C54.7961 30.7005 55.2195 31.7228 55.2195 32.7888Z" fill="#8B0A8B"/>
</svg>