<svg width="45" height="44" viewBox="0 0 45 44" fill="none" xmlns="http://www.w3.org/2000/svg">
<rect x="1" y="0.5" width="43" height="43" rx="21.5" stroke="#E99FE9"/>
<g clip-path="url(#clip0_2735_1760)">
<rect width="24" height="24" transform="translate(10.5 10)" fill="white"/>
<path d="M24.4158 22.0002L28.7158 17.7102C28.9041 17.5219 29.0099 17.2665 29.0099 17.0002C29.0099 16.7339 28.9041 16.4785 28.7158 16.2902C28.5275 16.1019 28.2721 15.9961 28.0058 15.9961C27.7395 15.9961 27.4841 16.1019 27.2958 16.2902L23.0058 20.5902L18.7158 16.2902C18.5275 16.1019 18.2721 15.9961 18.0058 15.9961C17.7395 15.9961 17.4841 16.1019 17.2958 16.2902C17.1075 16.4785 17.0017 16.7339 17.0017 17.0002C17.0017 17.2665 17.1075 17.5219 17.2958 17.7102L21.5958 22.0002L17.2958 26.2902C17.2021 26.3831 17.1277 26.4937 17.0769 26.6156C17.0261 26.7375 17 26.8682 17 27.0002C17 27.1322 17.0261 27.2629 17.0769 27.3848C17.1277 27.5066 17.2021 27.6172 17.2958 27.7102C17.3888 27.8039 17.4994 27.8783 17.6212 27.9291C17.7431 27.9798 17.8738 28.006 18.0058 28.006C18.1378 28.006 18.2685 27.9798 18.3904 27.9291C18.5122 27.8783 18.6228 27.8039 18.7158 27.7102L23.0058 23.4102L27.2958 27.7102C27.3888 27.8039 27.4994 27.8783 27.6212 27.9291C27.7431 27.9798 27.8738 28.006 28.0058 28.006C28.1378 28.006 28.2685 27.9798 28.3904 27.9291C28.5122 27.8783 28.6228 27.8039 28.7158 27.7102C28.8095 27.6172 28.8839 27.5066 28.9347 27.3848C28.9855 27.2629 29.0116 27.1322 29.0116 27.0002C29.0116 26.8682 28.9855 26.7375 28.9347 26.6156C28.8839 26.4937 28.8095 26.3831 28.7158 26.2902L24.4158 22.0002Z" fill="url(#paint0_linear_2735_1760)"/>
</g>
<defs>
<linearGradient id="paint0_linear_2735_1760" x1="23.0058" y1="15.9961" x2="23.0058" y2="27.2261" gradientUnits="userSpaceOnUse">
<stop stop-color="#B73BBE"/>
<stop offset="1" stop-color="#992E9D"/>
</linearGradient>
<clipPath id="clip0_2735_1760">
<rect width="24" height="24" fill="white" transform="translate(10.5 10)"/>
</clipPath>
</defs>
</svg>
